<svg xmlns="http://www.w3.org/2000/svg" xmlns:xlink="http://www.w3.org/1999/xlink" id="Calque_1" viewBox="0 0 67 65.97"><defs><style>.cls-1{fill:url(#Dégradé_sans_nom_9);}.cls-2{fill:url(#Dégradé_sans_nom_6);}.cls-3{fill:url(#Dégradé_sans_nom_7);}.cls-4{fill:url(#Dégradé_sans_nom_4);}.cls-5{fill:url(#Dégradé_sans_nom_5);}.cls-6{fill:url(#Dégradé_sans_nom_2);}.cls-7{fill:url(#Dégradé_sans_nom_3);}.cls-8{fill:url(#Dégradé_sans_nom_8);}.cls-9{fill:url(#Dégradé_sans_nom);}.cls-10{fill:url(#Dégradé_sans_nom_10);}.cls-11{fill:url(#Dégradé_sans_nom_11);}</style><linearGradient id="D&#xE9;grad&#xE9;_sans_nom" x1="71.08" y1="-20.41" x2="-10.71" y2="45.22" gradientTransform="translate(0 67.85) scale(1 -1)" gradientUnits="userSpaceOnUse"><stop offset="0" stop-color="#d6aa00"></stop><stop offset=".12" stop-color="#d6ab02"></stop><stop offset=".2" stop-color="#d9af0c"></stop><stop offset=".27" stop-color="#ddb61b"></stop><stop offset=".33" stop-color="#e4c031"></stop><stop offset=".39" stop-color="#eccc4d"></stop><stop offset=".45" stop-color="#f6dc70"></stop><stop offset=".49" stop-color="#ffea8f"></stop><stop offset=".5" stop-color="#f8df78"></stop><stop offset=".51" stop-color="#efd158"></stop><stop offset=".52" stop-color="#e7c53d"></stop><stop offset=".54" stop-color="#e0bb27"></stop><stop offset=".55" stop-color="#dbb416"></stop><stop offset=".57" stop-color="#d8ae0a"></stop><stop offset=".6" stop-color="#d6ab03"></stop><stop offset=".68" stop-color="#d6ab02"></stop><stop offset=".74" stop-color="#d6ab03"></stop><stop offset=".76" stop-color="#d8ae0a"></stop><stop offset=".78" stop-color="#dbb416"></stop><stop offset=".79" stop-color="#e0bb27"></stop><stop offset=".8" stop-color="#e7c53d"></stop><stop offset=".81" stop-color="#efd158"></stop><stop offset=".82" stop-color="#ffea8f"></stop><stop offset=".83" stop-color="#fae37f"></stop><stop offset=".84" stop-color="#f3d765"></stop><stop offset=".85" stop-color="#eccd4f"></stop><stop offset=".87" stop-color="#e7c63e"></stop><stop offset=".89" stop-color="#e4c032"></stop><stop offset=".92" stop-color="#e2bd2b"></stop><stop offset="1" stop-color="#e2bd2a"></stop></linearGradient><linearGradient id="D&#xE9;grad&#xE9;_sans_nom_2" x1="74.17" y1="-16.56" x2="-7.62" y2="49.07" gradientTransform="translate(0 67.85) scale(1 -1)" gradientUnits="userSpaceOnUse"><stop offset="0" stop-color="#d6aa00"></stop><stop offset=".12" stop-color="#d6ab02"></stop><stop offset=".2" stop-color="#d9af0c"></stop><stop offset=".27" stop-color="#ddb61b"></stop><stop offset=".33" stop-color="#e4c031"></stop><stop offset=".39" stop-color="#eccc4d"></stop><stop offset=".45" stop-color="#f6dc70"></stop><stop offset=".49" stop-color="#ffea8f"></stop><stop offset=".5" stop-color="#f8df78"></stop><stop offset=".51" stop-color="#efd158"></stop><stop offset=".52" stop-color="#e7c53d"></stop><stop offset=".54" stop-color="#e0bb27"></stop><stop offset=".55" stop-color="#dbb416"></stop><stop offset=".57" stop-color="#d8ae0a"></stop><stop offset=".6" stop-color="#d6ab03"></stop><stop offset=".68" stop-color="#d6ab02"></stop><stop offset=".74" stop-color="#d6ab03"></stop><stop offset=".76" stop-color="#d8ae0a"></stop><stop offset=".78" stop-color="#dbb416"></stop><stop offset=".79" stop-color="#e0bb27"></stop><stop offset=".8" stop-color="#e7c53d"></stop><stop offset=".81" stop-color="#efd158"></stop><stop offset=".82" stop-color="#ffea8f"></stop><stop offset=".83" stop-color="#fae37f"></stop><stop offset=".84" stop-color="#f3d765"></stop><stop offset=".85" stop-color="#eccd4f"></stop><stop offset=".87" stop-color="#e7c63e"></stop><stop offset=".89" stop-color="#e4c032"></stop><stop offset=".92" stop-color="#e2bd2b"></stop><stop offset="1" stop-color="#e2bd2a"></stop></linearGradient><linearGradient id="D&#xE9;grad&#xE9;_sans_nom_3" x1="78.95" y1="-10.61" x2="-2.85" y2="55.02" gradientTransform="translate(0 67.85) scale(1 -1)" gradientUnits="userSpaceOnUse"><stop offset="0" stop-color="#d6aa00"></stop><stop offset=".12" stop-color="#d6ab02"></stop><stop offset=".2" stop-color="#d9af0c"></stop><stop offset=".27" stop-color="#ddb61b"></stop><stop offset=".33" stop-color="#e4c031"></stop><stop offset=".39" stop-color="#eccc4d"></stop><stop offset=".45" stop-color="#f6dc70"></stop><stop offset=".49" stop-color="#ffea8f"></stop><stop offset=".5" stop-color="#f8df78"></stop><stop offset=".51" stop-color="#efd158"></stop><stop offset=".52" stop-color="#e7c53d"></stop><stop offset=".54" stop-color="#e0bb27"></stop><stop offset=".55" stop-color="#dbb416"></stop><stop offset=".57" stop-color="#d8ae0a"></stop><stop offset=".6" stop-color="#d6ab03"></stop><stop offset=".68" stop-color="#d6ab02"></stop><stop offset=".74" stop-color="#d6ab03"></stop><stop offset=".76" stop-color="#d8ae0a"></stop><stop offset=".78" stop-color="#dbb416"></stop><stop offset=".79" stop-color="#e0bb27"></stop><stop offset=".8" stop-color="#e7c53d"></stop><stop offset=".81" stop-color="#efd158"></stop><stop offset=".82" stop-color="#ffea8f"></stop><stop offset=".83" stop-color="#fae37f"></stop><stop offset=".84" stop-color="#f3d765"></stop><stop offset=".85" stop-color="#eccd4f"></stop><stop offset=".87" stop-color="#e7c63e"></stop><stop offset=".89" stop-color="#e4c032"></stop><stop offset=".92" stop-color="#e2bd2b"></stop><stop offset="1" stop-color="#e2bd2a"></stop></linearGradient><linearGradient id="D&#xE9;grad&#xE9;_sans_nom_4" x1="81.62" y1="-7.27" x2="-.17" y2="58.36" gradientTransform="translate(0 67.85) scale(1 -1)" gradientUnits="userSpaceOnUse"><stop offset="0" stop-color="#d6aa00"></stop><stop offset=".12" stop-color="#d6ab02"></stop><stop offset=".2" stop-color="#d9af0c"></stop><stop offset=".27" stop-color="#ddb61b"></stop><stop offset=".33" stop-color="#e4c031"></stop><stop offset=".39" stop-color="#eccc4d"></stop><stop offset=".45" stop-color="#f6dc70"></stop><stop offset=".49" stop-color="#ffea8f"></stop><stop offset=".5" stop-color="#f8df78"></stop><stop offset=".51" stop-color="#efd158"></stop><stop offset=".52" stop-color="#e7c53d"></stop><stop offset=".54" stop-color="#e0bb27"></stop><stop offset=".55" stop-color="#dbb416"></stop><stop offset=".57" stop-color="#d8ae0a"></stop><stop offset=".6" stop-color="#d6ab03"></stop><stop offset=".68" stop-color="#d6ab02"></stop><stop offset=".74" stop-color="#d6ab03"></stop><stop offset=".76" stop-color="#d8ae0a"></stop><stop offset=".78" stop-color="#dbb416"></stop><stop offset=".79" stop-color="#e0bb27"></stop><stop offset=".8" stop-color="#e7c53d"></stop><stop offset=".81" stop-color="#efd158"></stop><stop offset=".82" stop-color="#ffea8f"></stop><stop offset=".83" stop-color="#fae37f"></stop><stop offset=".84" stop-color="#f3d765"></stop><stop offset=".85" stop-color="#eccd4f"></stop><stop offset=".87" stop-color="#e7c63e"></stop><stop offset=".89" stop-color="#e4c032"></stop><stop offset=".92" stop-color="#e2bd2b"></stop><stop offset="1" stop-color="#e2bd2a"></stop></linearGradient><linearGradient id="D&#xE9;grad&#xE9;_sans_nom_5" x1="85.05" y1="-3" x2="3.26" y2="62.63" gradientTransform="translate(0 67.85) scale(1 -1)" gradientUnits="userSpaceOnUse"><stop offset="0" stop-color="#d6aa00"></stop><stop offset=".12" stop-color="#d6ab02"></stop><stop offset=".2" stop-color="#d9af0c"></stop><stop offset=".27" stop-color="#ddb61b"></stop><stop offset=".33" stop-color="#e4c031"></stop><stop offset=".39" stop-color="#eccc4d"></stop><stop offset=".45" stop-color="#f6dc70"></stop><stop offset=".49" stop-color="#ffea8f"></stop><stop offset=".5" stop-color="#f8df78"></stop><stop offset=".51" stop-color="#efd158"></stop><stop offset=".52" stop-color="#e7c53d"></stop><stop offset=".54" stop-color="#e0bb27"></stop><stop offset=".55" stop-color="#dbb416"></stop><stop offset=".57" stop-color="#d8ae0a"></stop><stop offset=".6" stop-color="#d6ab03"></stop><stop offset=".68" stop-color="#d6ab02"></stop><stop offset=".74" stop-color="#d6ab03"></stop><stop offset=".76" stop-color="#d8ae0a"></stop><stop offset=".78" stop-color="#dbb416"></stop><stop offset=".79" stop-color="#e0bb27"></stop><stop offset=".8" stop-color="#e7c53d"></stop><stop offset=".81" stop-color="#efd158"></stop><stop offset=".82" stop-color="#ffea8f"></stop><stop offset=".83" stop-color="#fae37f"></stop><stop offset=".84" stop-color="#f3d765"></stop><stop offset=".85" stop-color="#eccd4f"></stop><stop offset=".87" stop-color="#e7c63e"></stop><stop offset=".89" stop-color="#e4c032"></stop><stop offset=".92" stop-color="#e2bd2b"></stop><stop offset="1" stop-color="#e2bd2a"></stop></linearGradient><linearGradient id="D&#xE9;grad&#xE9;_sans_nom_6" x1="88.96" y1="1.87" x2="7.17" y2="67.5" gradientTransform="translate(0 67.85) scale(1 -1)" gradientUnits="userSpaceOnUse"><stop offset="0" stop-color="#d6aa00"></stop><stop offset=".12" stop-color="#d6ab02"></stop><stop offset=".2" stop-color="#d9af0c"></stop><stop offset=".27" stop-color="#ddb61b"></stop><stop offset=".33" stop-color="#e4c031"></stop><stop offset=".39" stop-color="#eccc4d"></stop><stop offset=".45" stop-color="#f6dc70"></stop><stop offset=".49" stop-color="#ffea8f"></stop><stop offset=".5" stop-color="#f8df78"></stop><stop offset=".51" stop-color="#efd158"></stop><stop offset=".52" stop-color="#e7c53d"></stop><stop offset=".54" stop-color="#e0bb27"></stop><stop offset=".55" stop-color="#dbb416"></stop><stop offset=".57" stop-color="#d8ae0a"></stop><stop offset=".6" stop-color="#d6ab03"></stop><stop offset=".68" stop-color="#d6ab02"></stop><stop offset=".74" stop-color="#d6ab03"></stop><stop offset=".76" stop-color="#d8ae0a"></stop><stop offset=".78" stop-color="#dbb416"></stop><stop offset=".79" stop-color="#e0bb27"></stop><stop offset=".8" stop-color="#e7c53d"></stop><stop offset=".81" stop-color="#efd158"></stop><stop offset=".82" stop-color="#ffea8f"></stop><stop offset=".83" stop-color="#fae37f"></stop><stop offset=".84" stop-color="#f3d765"></stop><stop offset=".85" stop-color="#eccd4f"></stop><stop offset=".87" stop-color="#e7c63e"></stop><stop offset=".89" stop-color="#e4c032"></stop><stop offset=".92" stop-color="#e2bd2b"></stop><stop offset="1" stop-color="#e2bd2a"></stop></linearGradient><linearGradient id="D&#xE9;grad&#xE9;_sans_nom_7" x1="91.5" y1="5.03" x2="9.71" y2="70.67" gradientTransform="translate(0 67.85) scale(1 -1)" gradientUnits="userSpaceOnUse"><stop offset="0" stop-color="#d6aa00"></stop><stop offset=".12" stop-color="#d6ab02"></stop><stop offset=".2" stop-color="#d9af0c"></stop><stop offset=".27" stop-color="#ddb61b"></stop><stop offset=".33" stop-color="#e4c031"></stop><stop offset=".39" stop-color="#eccc4d"></stop><stop offset=".45" stop-color="#f6dc70"></stop><stop offset=".49" stop-color="#ffea8f"></stop><stop offset=".5" stop-color="#f8df78"></stop><stop offset=".51" stop-color="#efd158"></stop><stop offset=".52" stop-color="#e7c53d"></stop><stop offset=".54" stop-color="#e0bb27"></stop><stop offset=".55" stop-color="#dbb416"></stop><stop offset=".57" stop-color="#d8ae0a"></stop><stop offset=".6" stop-color="#d6ab03"></stop><stop offset=".68" stop-color="#d6ab02"></stop><stop offset=".74" stop-color="#d6ab03"></stop><stop offset=".76" stop-color="#d8ae0a"></stop><stop offset=".78" stop-color="#dbb416"></stop><stop offset=".79" stop-color="#e0bb27"></stop><stop offset=".8" stop-color="#e7c53d"></stop><stop offset=".81" stop-color="#efd158"></stop><stop offset=".82" stop-color="#ffea8f"></stop><stop offset=".83" stop-color="#fae37f"></stop><stop offset=".84" stop-color="#f3d765"></stop><stop offset=".85" stop-color="#eccd4f"></stop><stop offset=".87" stop-color="#e7c63e"></stop><stop offset=".89" stop-color="#e4c032"></stop><stop offset=".92" stop-color="#e2bd2b"></stop><stop offset="1" stop-color="#e2bd2a"></stop></linearGradient><linearGradient id="D&#xE9;grad&#xE9;_sans_nom_8" x1="93.99" y1="8.13" x2="12.2" y2="73.76" gradientTransform="translate(0 67.85) scale(1 -1)" gradientUnits="userSpaceOnUse"><stop offset="0" stop-color="#d6aa00"></stop><stop offset=".12" stop-color="#d6ab02"></stop><stop offset=".2" stop-color="#d9af0c"></stop><stop offset=".27" stop-color="#ddb61b"></stop><stop offset=".33" stop-color="#e4c031"></stop><stop offset=".39" stop-color="#eccc4d"></stop><stop offset=".45" stop-color="#f6dc70"></stop><stop offset=".49" stop-color="#ffea8f"></stop><stop offset=".5" stop-color="#f8df78"></stop><stop offset=".51" stop-color="#efd158"></stop><stop offset=".52" stop-color="#e7c53d"></stop><stop offset=".54" stop-color="#e0bb27"></stop><stop offset=".55" stop-color="#dbb416"></stop><stop offset=".57" stop-color="#d8ae0a"></stop><stop offset=".6" stop-color="#d6ab03"></stop><stop offset=".68" stop-color="#d6ab02"></stop><stop offset=".74" stop-color="#d6ab03"></stop><stop offset=".76" stop-color="#d8ae0a"></stop><stop offset=".78" stop-color="#dbb416"></stop><stop offset=".79" stop-color="#e0bb27"></stop><stop offset=".8" stop-color="#e7c53d"></stop><stop offset=".81" stop-color="#efd158"></stop><stop offset=".82" stop-color="#ffea8f"></stop><stop offset=".83" stop-color="#fae37f"></stop><stop offset=".84" stop-color="#f3d765"></stop><stop offset=".85" stop-color="#eccd4f"></stop><stop offset=".87" stop-color="#e7c63e"></stop><stop offset=".89" stop-color="#e4c032"></stop><stop offset=".92" stop-color="#e2bd2b"></stop><stop offset="1" stop-color="#e2bd2a"></stop></linearGradient><linearGradient id="D&#xE9;grad&#xE9;_sans_nom_9" x1="92.92" y1="6.81" x2="11.13" y2="72.44" gradientTransform="translate(0 67.85) scale(1 -1)" gradientUnits="userSpaceOnUse"><stop offset="0" stop-color="#d6aa00"></stop><stop offset=".12" stop-color="#d6ab02"></stop><stop offset=".2" stop-color="#d9af0c"></stop><stop offset=".27" stop-color="#ddb61b"></stop><stop offset=".33" stop-color="#e4c031"></stop><stop offset=".39" stop-color="#eccc4d"></stop><stop offset=".45" stop-color="#f6dc70"></stop><stop offset=".49" stop-color="#ffea8f"></stop><stop offset=".5" stop-color="#f8df78"></stop><stop offset=".51" stop-color="#efd158"></stop><stop offset=".52" stop-color="#e7c53d"></stop><stop offset=".54" stop-color="#e0bb27"></stop><stop offset=".55" stop-color="#dbb416"></stop><stop offset=".57" stop-color="#d8ae0a"></stop><stop offset=".6" stop-color="#d6ab03"></stop><stop offset=".68" stop-color="#d6ab02"></stop><stop offset=".74" stop-color="#d6ab03"></stop><stop offset=".76" stop-color="#d8ae0a"></stop><stop offset=".78" stop-color="#dbb416"></stop><stop offset=".79" stop-color="#e0bb27"></stop><stop offset=".8" stop-color="#e7c53d"></stop><stop offset=".81" stop-color="#efd158"></stop><stop offset=".82" stop-color="#ffea8f"></stop><stop offset=".83" stop-color="#fae37f"></stop><stop offset=".84" stop-color="#f3d765"></stop><stop offset=".85" stop-color="#eccd4f"></stop><stop offset=".87" stop-color="#e7c63e"></stop><stop offset=".89" stop-color="#e4c032"></stop><stop offset=".92" stop-color="#e2bd2b"></stop><stop offset="1" stop-color="#e2bd2a"></stop></linearGradient><linearGradient id="D&#xE9;grad&#xE9;_sans_nom_10" x1="73.77" y1="-17.06" x2="-8.02" y2="48.57" gradientTransform="translate(0 67.85) scale(1 -1)" gradientUnits="userSpaceOnUse"><stop offset="0" stop-color="#d6aa00"></stop><stop offset=".12" stop-color="#d6ab02"></stop><stop offset=".2" stop-color="#d9af0c"></stop><stop offset=".27" stop-color="#ddb61b"></stop><stop offset=".33" stop-color="#e4c031"></stop><stop offset=".39" stop-color="#eccc4d"></stop><stop offset=".45" stop-color="#f6dc70"></stop><stop offset=".49" stop-color="#ffea8f"></stop><stop offset=".5" stop-color="#f8df78"></stop><stop offset=".51" stop-color="#efd158"></stop><stop offset=".52" stop-color="#e7c53d"></stop><stop offset=".54" stop-color="#e0bb27"></stop><stop offset=".55" stop-color="#dbb416"></stop><stop offset=".57" stop-color="#d8ae0a"></stop><stop offset=".6" stop-color="#d6ab03"></stop><stop offset=".68" stop-color="#d6ab02"></stop><stop offset=".74" stop-color="#d6ab03"></stop><stop offset=".76" stop-color="#d8ae0a"></stop><stop offset=".78" stop-color="#dbb416"></stop><stop offset=".79" stop-color="#e0bb27"></stop><stop offset=".8" stop-color="#e7c53d"></stop><stop offset=".81" stop-color="#efd158"></stop><stop offset=".82" stop-color="#ffea8f"></stop><stop offset=".83" stop-color="#fae37f"></stop><stop offset=".84" stop-color="#f3d765"></stop><stop offset=".85" stop-color="#eccd4f"></stop><stop offset=".87" stop-color="#e7c63e"></stop><stop offset=".89" stop-color="#e4c032"></stop><stop offset=".92" stop-color="#e2bd2b"></stop><stop offset="1" stop-color="#e2bd2a"></stop></linearGradient><linearGradient id="D&#xE9;grad&#xE9;_sans_nom_11" x1="102.82" y1="19.14" x2="21.03" y2="84.77" gradientTransform="translate(0 67.85) scale(1 -1)" gradientUnits="userSpaceOnUse"><stop offset="0" stop-color="#d6aa00"></stop><stop offset=".12" stop-color="#d6ab02"></stop><stop offset=".2" stop-color="#d9af0c"></stop><stop offset=".27" stop-color="#ddb61b"></stop><stop offset=".33" stop-color="#e4c031"></stop><stop offset=".39" stop-color="#eccc4d"></stop><stop offset=".45" stop-color="#f6dc70"></stop><stop offset=".49" stop-color="#ffea8f"></stop><stop offset=".5" stop-color="#f8df78"></stop><stop offset=".51" stop-color="#efd158"></stop><stop offset=".52" stop-color="#e7c53d"></stop><stop offset=".54" stop-color="#e0bb27"></stop><stop offset=".55" stop-color="#dbb416"></stop><stop offset=".57" stop-color="#d8ae0a"></stop><stop offset=".6" stop-color="#d6ab03"></stop><stop offset=".68" stop-color="#d6ab02"></stop><stop offset=".74" stop-color="#d6ab03"></stop><stop offset=".76" stop-color="#d8ae0a"></stop><stop offset=".78" stop-color="#dbb416"></stop><stop offset=".79" stop-color="#e0bb27"></stop><stop offset=".8" stop-color="#e7c53d"></stop><stop offset=".81" stop-color="#efd158"></stop><stop offset=".82" stop-color="#ffea8f"></stop><stop offset=".83" stop-color="#fae37f"></stop><stop offset=".84" stop-color="#f3d765"></stop><stop offset=".85" stop-color="#eccd4f"></stop><stop offset=".87" stop-color="#e7c63e"></stop><stop offset=".89" stop-color="#e4c032"></stop><stop offset=".92" stop-color="#e2bd2b"></stop><stop offset="1" stop-color="#e2bd2a"></stop></linearGradient></defs><path class="cls-9" d="M4.23,27.79v.29c-.31,0-.54.05-.7.1-.16.06-.26.18-.33.34-.06.17-.09.44-.09.79v7.21c0,.34.02.61.08.78.06.17.16.29.33.34.17.06.4.09.71.11v.29c-.24-.02-.55-.03-.93-.03H.92c-.38,0-.69.02-.92.03v-.29c.32-.02.56-.06.72-.11.16-.06.26-.17.32-.34.06-.17.08-.44.08-.78v-7.21c0-.36-.02-.62-.08-.79-.06-.17-.16-.29-.32-.34-.16-.06-.4-.1-.72-.1v-.29c.23,0,.54.02.92.03.38.01.79.01,1.23.01.39,0,.77,0,1.15-.01.38,0,.69-.02.93-.03Z"></path><path class="cls-6" d="M14.74,27.79v.29c-.31.02-.55.1-.71.21-.16.11-.28.29-.33.53-.06.24-.08.57-.08,1.01v8.32c-.09,0-.18-.01-.29-.01s-.21,0-.33.01l-6.25-8.49v6.28c0,.47.03.83.09,1.08.06.25.18.44.39.55.2.11.51.18.91.23v.29c-.18-.02-.43-.03-.71-.03h-1.53c-.24,0-.44.02-.59.03v-.29c.32-.03.56-.11.72-.22s.26-.29.32-.53c.06-.24.08-.57.08-1v-6.72c0-.36-.02-.62-.08-.79-.06-.17-.16-.29-.32-.34-.16-.06-.4-.1-.72-.1v-.29c.16,0,.36.02.59.03.24,0,.47.01.7.01s.44,0,.65-.01c.22,0,.4-.02.56-.03l5.46,7.26v-5.11c0-.47-.03-.84-.09-1.09-.06-.25-.18-.44-.38-.55s-.51-.2-.92-.22v-.29c.18,0,.43.02.72.03.3,0,.57.01.83.01s.48,0,.72-.01c.24,0,.43-.02.57-.03h.01Z"></path><path class="cls-7" d="M24.86,27.79v.29c-.2.07-.4.22-.64.46-.24.24-.44.61-.63,1.11l-3.19,8.49h-.76l-3.65-9.13c-.15-.36-.3-.6-.47-.72-.17-.13-.33-.2-.47-.21v-.29c.25,0,.56.02.92.03.37,0,.72.01,1.07.01.43,0,.83,0,1.21-.01.37,0,.67-.02.9-.03v.29c-.32,0-.56.05-.74.1-.17.06-.26.18-.29.34-.02.17.03.42.16.77l2.68,6.88-.28.33,2.18-5.82c.24-.65.37-1.16.37-1.54s-.1-.65-.32-.82c-.22-.16-.52-.25-.92-.26v-.29c.32,0,.62.02.91.03.29.01.57.01.85.01.23,0,.44,0,.62-.01.18-.01.34-.02.48-.03h.02Z"></path><path class="cls-4" d="M32.87,27.79c-.03.4-.07.78-.08,1.16-.01.37-.02.65-.02.85s0,.36.01.53c0,.17.02.31.03.43h-.33c-.08-.67-.21-1.19-.38-1.57-.17-.38-.41-.65-.7-.82-.3-.16-.68-.24-1.16-.24h-.8c-.3,0-.53.02-.68.07-.15.05-.25.15-.31.31-.06.16-.08.39-.08.71v7.46c0,.32.02.56.08.71.06.15.16.25.31.31.15.06.38.07.68.07h.83c.49,0,.91-.09,1.24-.28.33-.18.61-.48.8-.91.2-.43.36-1,.45-1.73h.33c-.03.3-.05.69-.05,1.16,0,.21,0,.51.02.88.01.39.05.79.08,1.21-.49-.02-1.06-.03-1.68-.03h-3.72c-.41,0-.84,0-1.28.01-.44.01-.84.01-1.23.02v-.29c.32-.02.56-.06.72-.11.16-.06.26-.17.32-.34.06-.17.08-.44.08-.78v-7.21c0-.36-.02-.62-.08-.79-.06-.17-.16-.29-.32-.34-.16-.06-.4-.1-.72-.1v-.29c.39,0,.79.01,1.23.02.44,0,.86,0,1.29.01.43.01.82,0,1.17,0h2.4c.56,0,1.08-.01,1.52-.03l.02-.03ZM30.52,32.78v.29h-2.6v-.29h2.6ZM30.95,30.86c-.03.55-.06.98-.05,1.26v.8c0,.24,0,.51.01.8,0,.29.03.71.07,1.26h-.33c-.05-.33-.13-.64-.23-.94-.1-.3-.26-.54-.48-.71-.22-.18-.53-.28-.94-.28v-.29c.3,0,.55-.07.74-.2.2-.13.34-.29.46-.48.11-.2.21-.4.26-.62.07-.22.11-.43.14-.62h.36Z"></path><path class="cls-5" d="M37.82,27.62c.54,0,.97.06,1.25.17.29.11.54.24.76.38.11.07.21.11.29.15.07.03.14.05.21.05.09,0,.17-.06.21-.16.05-.1.08-.26.11-.48h.33c0,.18-.02.4-.03.64-.01.24-.02.56-.03.97-.01.4,0,.93,0,1.6h-.33c-.03-.49-.14-.96-.33-1.42-.2-.46-.46-.83-.8-1.13-.34-.3-.78-.45-1.32-.45-.47,0-.87.14-1.18.43-.31.29-.47.67-.47,1.14,0,.4.1.75.31,1.02.21.28.49.54.86.8.37.25.82.55,1.33.88.47.31.91.62,1.29.93.38.31.68.64.9,1.01.22.37.33.82.33,1.36,0,.63-.16,1.16-.47,1.57-.31.41-.72.72-1.25.93-.53.21-1.09.31-1.72.31-.57,0-1.02-.06-1.36-.17-.33-.11-.62-.24-.86-.37-.22-.14-.38-.21-.49-.21-.09,0-.17.06-.21.16-.05.1-.08.26-.1.48h-.33c.02-.22.03-.48.03-.78s0-.69.01-1.17v-1.83h.33c.03.62.15,1.21.33,1.73.18.54.46.98.83,1.3.38.33.87.49,1.49.49.34,0,.64-.06.92-.18s.49-.31.67-.57c.16-.25.25-.59.25-.98s-.09-.75-.28-1.05c-.18-.3-.44-.59-.77-.85-.33-.26-.71-.53-1.16-.8-.46-.29-.88-.59-1.28-.88-.4-.3-.71-.64-.95-1.02-.24-.38-.36-.85-.36-1.39,0-.6.15-1.09.44-1.48.29-.39.67-.67,1.14-.85s.98-.28,1.51-.28h-.02Z"></path><path class="cls-2" d="M51.23,27.79c-.03.45-.07.88-.08,1.3-.01.43-.02.75-.02.97s0,.44.01.62c0,.2.02.37.03.51h-.33c-.14-.78-.3-1.39-.49-1.83-.2-.44-.45-.76-.77-.95-.31-.2-.74-.29-1.24-.29h-.47v8.29c0,.4.03.69.1.88.07.2.22.32.45.39.23.07.55.1.98.1v.29c-.29-.02-.67-.03-1.14-.03h-2.85c-.44,0-.79.02-1.07.03v-.29c.41,0,.74-.05.97-.1.23-.06.38-.2.45-.39.08-.2.11-.49.11-.88v-8.29h-.48c-.51,0-.92.09-1.24.29-.32.2-.57.52-.77.95-.2.44-.36,1.05-.48,1.83h-.33c.02-.15.03-.31.03-.51v-.62c0-.22,0-.55-.02-.97-.01-.43-.05-.86-.08-1.3.43,0,.9.02,1.41.03.52,0,1.03.01,1.54.01h2.81c.52,0,1.03,0,1.54-.01.52,0,.99-.02,1.41-.03h.02Z"></path><path class="cls-3" d="M56.36,27.79v.29c-.31,0-.54.05-.7.1-.16.06-.26.18-.33.34-.06.17-.09.44-.09.79v7.21c0,.34.02.61.08.78.06.17.16.29.33.34.17.06.4.09.71.11v.29c-.24-.02-.55-.03-.93-.03h-2.38c-.38,0-.69.02-.92.03v-.29c.32-.02.56-.06.72-.11.16-.06.26-.17.32-.34.06-.17.08-.44.08-.78v-7.21c0-.36-.02-.62-.08-.79-.06-.17-.16-.29-.32-.34-.16-.06-.4-.1-.72-.1v-.29c.23,0,.54.02.92.03.38.01.79.01,1.23.01.39,0,.77,0,1.15-.01.38,0,.69-.02.93-.03Z"></path><path class="cls-8" d="M57.43,27.79c.24,0,.55.02.93.03.38.01.76.01,1.14.01.47,0,.93,0,1.36-.01.43-.01.72-.01.91-.01.87,0,1.6.1,2.16.31.56.21.99.51,1.28.88.28.38.43.83.43,1.34,0,.32-.06.64-.18.99-.13.34-.34.64-.65.92-.31.29-.74.52-1.28.69-.54.18-1.23.26-2.06.26h-1.4v-.29h1.25c.61,0,1.08-.1,1.4-.32.32-.22.54-.51.65-.87s.17-.77.17-1.22c0-.77-.15-1.36-.45-1.78-.3-.43-.82-.63-1.56-.63-.4,0-.65.08-.78.25-.13.17-.18.51-.18,1v7.21c0,.34.03.61.09.78.06.17.17.29.33.34.16.06.39.09.7.11v.29c-.24-.02-.55-.03-.93-.03h-2.37c-.38,0-.69.02-.93.03v-.29c.32-.02.56-.06.72-.11.16-.06.26-.17.32-.34.06-.17.08-.44.08-.78v-7.21c0-.36-.02-.62-.08-.79-.06-.17-.16-.29-.32-.34-.16-.06-.4-.1-.72-.1v-.29l-.02-.03ZM60.04,32.96c.46.02.84.05,1.14.07.31.02.56.05.78.07.22.02.41.05.59.07.8.08,1.4.26,1.78.56.38.3.64.75.77,1.34l.33,1.5c.09.4.18.68.29.85.1.17.25.25.45.24.14,0,.25-.03.34-.1.09-.07.2-.17.29-.3l.21.17c-.24.3-.51.52-.77.67-.26.15-.62.21-1.03.21-.47,0-.86-.1-1.18-.32-.32-.22-.54-.63-.65-1.24l-.28-1.46c-.08-.4-.17-.77-.26-1.08s-.24-.55-.41-.72c-.17-.17-.44-.26-.77-.26h-1.57l-.03-.25h.01Z"></path><path class="cls-1" d="M47.94,1.67c-.02,1.5-1.47,2.57-2.91,2.14-3.52-1.06-8.57-1.71-12.6-1.84-1.36-.05-11.43.29-15.85,7.93-5.39,9.33.6,16.34.6,16.34h15.29c-2.55-1.5-4.47-3-5.87-4.34-2.72-2.61-4.09-6.41-3.24-10.08.72-3.1,3.11-6.36,10.28-6.67,13.99.39,14.29,16.86,14.29,16.86l1.28,1.41,1.23-1.41V1.65l-1.23-1.65-1.26,1.67Z"></path><path class="cls-10" d="M19.06,64.3c.02-1.5,1.47-2.57,2.91-2.14,3.52,1.06,8.57,1.71,12.6,1.84,1.36.05,11.43-.29,15.85-7.93,5.39-9.33-.6-16.34-.6-16.34h-15.29c2.55,1.51,4.47,3,5.87,4.34,2.72,2.61,4.09,6.41,3.24,10.08-.72,3.1-3.11,6.36-10.28,6.67-13.99-.39-14.29-16.86-14.29-16.86l-1.28-1.41-1.23,1.41v20.35l1.23,1.65,1.26-1.67Z"></path><path class="cls-11" d="M53.52,10.13c0-1.5.8-2.85,2.25-3.26.09-.02.18-.05.29-.05,1.53-.14,2.86,1.05,3.1,2.56.06.38.09.77.08,1.16-.03,1.6-.59,4.31-3.3,4.7-2.71.39-1.82-1.17-1.36-1.29,2.78-.65,2.4-1.77,2.4-1.77v-.14s-3.47.07-3.47-1.92Z"></path></svg>